<?xml version="1.0" encoding="UTF-8"?><svg id="Layer_1" xmlns="http://www.w3.org/2000/svg" width="114.54" height="90.31" viewBox="0 0 114.54 90.31"><defs><style>.cls-1{fill:#f15a29;}</style></defs><path class="cls-1" d="m2.21,43.97c-.03,5.47-.07,10.95-.1,16.42,0,1.61,2.49,1.61,2.5,0,.03-5.47.07-10.95.1-16.42,0-1.61-2.49-1.61-2.5,0h0Z"/><path class="cls-1" d="m4.57,44.35c2.46-3.68,5.12-7.2,8-10.56l-1.11.56c2.18.3,4.58-.13,6.21-1.69s2.2-3.79,2.09-5.94c-.04-.89-.56-2.13-.24-2.93.24-.6.87-1.22,1.25-1.75.43-.61.87-1.21,1.3-1.82,1.78-2.49,3.56-4.98,5.34-7.47.94-1.31-1.15-2.69-2.08-1.38-2.31,3.23-4.62,6.46-6.93,9.69-.96,1.35-1.72,2.28-1.38,3.99.3,1.49.44,3.04-.16,4.48-.64,1.53-2.12,2.33-3.73,2.43-.67.04-1.54-.28-2.16.04-.66.34-1.23,1.31-1.7,1.87-2.42,2.92-4.68,5.96-6.78,9.12-.89,1.34,1.19,2.72,2.08,1.38h0Z"/><path class="cls-1" d="m27.29,12.85l4.11-6.08c.49-.73.71-1.01,1.6-1.16.62-.1,1.31-.06,1.94-.07,1.13-.02,2.27,0,3.4.12,4.74.47,9.46,1.93,14.03,3.24,8.57,2.45,17.13,5.86,23.63,12.16,1.15,1.12,3.02-.54,1.87-1.66-5.46-5.3-12.3-8.77-19.44-11.22-3.85-1.32-7.78-2.37-11.72-3.36s-8.1-1.89-12.33-1.74c-.99.03-2.18-.06-3.12.31s-1.39,1.23-1.92,2.01l-4.11,6.08c-.9,1.34,1.18,2.72,2.08,1.38h0Z"/><path class="cls-1" d="m76.23,21.39c.48.38.96.75,1.43,1.15.06.05.13.11.19.16.17.15-.14-.12-.02-.02s.23.2.34.31c.22.21.44.42.65.64s.41.44.6.67c.09.1.17.21.25.32.05.06.1.13.15.2l.05.07c.08.11.06.09-.04-.06.05,0,.19.29.22.34.08.13.15.26.22.39.15.28.27.56.38.86.1.27.45.53.71.62.29.1.69.09.97-.07s.53-.4.62-.71c.1-.34.05-.64-.07-.97-.95-2.55-3.17-4.34-5.25-5.96-.52-.4-1.4-.2-1.73.35-.37.62-.2,1.3.35,1.73h0Z"/><path class="cls-1" d="m81.08,25.23c-12.75,2.86-25.46,5.93-38.1,9.22-1.55.4-1.04,2.85.52,2.45,12.65-3.29,25.35-6.37,38.1-9.22,1.57-.35,1.05-2.8-.52-2.45h0Z"/><path class="cls-1" d="m44.07,34.66c-2.57-2.79-5.97-4.67-9.69-5.37-3.24-.61-8.07-.32-8.98,3.66-.44,1.93.43,3.98,1.55,5.52.24.33.52.62.79.92l-.03-.17c.06.17.12.35.18.52.05.14.11.28.17.42.35.78.85,1.51,1.42,2.14,2.13,2.32,5.57,3.51,8.63,2.55,3.56-1.11,6.2-4.64,6.07-8.4-.06-1.59-2.55-1.75-2.5-.14.08,2.38-1.21,4.66-3.34,5.76s-4.67.61-6.47-.91c-.94-.8-1.38-1.73-1.85-2.83-.26-.61-.9-1.03-1.27-1.59-.42-.62-.74-1.33-.9-2.07-.75-3.38,3.84-3.32,5.97-2.95,3.21.55,6.18,2.23,8.37,4.61,1.09,1.18,2.96-.48,1.87-1.66h0Z"/><path class="cls-1" d="m3.92,45.16c7.94-2.12,16.16-3.48,24.25-4.88,1.58-.27,1.06-2.72-.52-2.45-8.09,1.4-16.31,2.76-24.25,4.88-1.55.41-1.04,2.86.52,2.45h0Z"/><path class="cls-1" d="m83.12,27.13l-.12-1.04c-.03-.16-.1-.31-.2-.44-.08-.14-.19-.25-.33-.34-.14-.1-.29-.16-.46-.18-.16-.05-.33-.05-.5,0l-.31.11c-.19.1-.35.24-.47.42l-.14.29c-.07.22-.09.44-.04.66l.12,1.04c.03.16.1.31.2.44.08.14.19.25.33.34.14.1.29.16.46.18.16.05.33.05.5,0l.31-.11c.19-.1.35-.24.47-.42l.14-.29c.07-.22.09-.44.04-.66h0Z"/><path class="cls-1" d="m53.91,16.67c-1.57,1.13-2.06,3.4-1.13,5.09.98,1.79,3.02,2.36,4.94,2.29s3.79-.87,4.62-2.75c.38-.86.38-1.87.02-2.72s-1.14-1.51-1.95-1.93c-1.94-1.02-4.22-1.09-6.2-.16-.59.28-.87,1.11-.55,1.68.34.61,1.05.84,1.68.55.15-.07.29-.14.44-.19-.21.07.23-.06.27-.07.16-.04.31-.07.47-.1.07-.01.5-.05.26-.04.32-.01.64,0,.96.03.08,0,.16.02.24.03-.05,0-.22-.05.03,0,.16.04.31.08.46.13s.3.1.45.17c.07.03.15.06.22.1-.05-.03-.18-.1.03.02.14.08.27.16.4.25.06.05.13.09.19.14-.1-.08-.04-.04.02.02.04.04.29.38.18.19.04.06.07.13.1.2.11.21,0,.04,0-.02.01.07.03.13.04.2.02.09-.02.19,0-.03,0,.07,0,.14,0,.2,0,.04-.06.32-.01.14.04-.16,0,.02-.02.04-.02.07-.04.13-.07.2s-.05.13-.08.19c.11-.22.02-.05,0-.01-.08.12-.16.24-.25.35.16-.2-.15.12-.2.17-.14.12.16-.09-.01.01-.05.03-.1.06-.15.09-.14.08-.28.14-.42.2.2-.08-.2.06-.26.07-.17.04-.35.08-.53.1-.07,0-.42.03-.2.02-.16,0-.32,0-.48,0-.35,0-.69-.04-1.04-.09-.21-.03.16.04-.04,0-.08-.02-.16-.04-.24-.06-.14-.04-.28-.09-.42-.14-.24-.09-.1-.05-.05-.02-.07-.04-.14-.08-.2-.12-.06-.04-.12-.08-.18-.13.14.11.03.02-.04-.05-.05-.05-.09-.12-.14-.17-.09-.09.07.14-.04-.05-.04-.06-.07-.13-.1-.19-.01-.03-.13-.3-.07-.15s-.02-.07-.03-.11c-.02-.09-.04-.18-.05-.27-.02-.07.01-.21,0,0,0-.09,0-.19,0-.28,0-.04.04-.27,0-.12s.04-.14.05-.17c.02-.07.05-.14.08-.21.08-.21-.04.03.03-.07.05-.06.08-.13.12-.19.05-.07.16-.2.04-.07.13-.14.28-.26.43-.37.53-.38.54-1.31.1-1.76-.51-.53-1.2-.51-1.76-.1h0Z"/><path class="cls-1" d="m30.1,12.82c-1.07,2.74-.96,6.17,1.35,8.26s6.25,2.31,8.8.69c2.2-1.39,3.66-3.91,3.57-6.54-.05-1.41-.49-2.78-1.39-3.89-1-1.23-2.5-1.71-4.01-1.92-3.15-.43-7.08.17-8.29,3.59-.54,1.52,1.83,2.32,2.37.8.68-1.92,3.08-2.13,4.83-2,.96.07,2.1.15,2.87.79.69.57,1,1.44,1.11,2.27.21,1.57-.56,3.35-1.85,4.41-.74.61-1.69.98-2.65,1.01-1.05.03-2.3-.12-3.2-.7-2.03-1.3-1.91-3.99-1.14-5.97.59-1.5-1.79-2.3-2.37-.8h0Z"/><path class="cls-1" d="m48.81,56.49c-1.25-.05-2.51-.61-2.96-1.87-.17-.48-.16-1.09.05-1.61.07-.16.21-.36.34-.49.28-.27.44-.37.82-.54,1.22-.56,2.94-.52,4.3-.01.37.14.65.26.97.47.29.19.46.35.58.55.27.5.27,1.01,0,1.61-.08.18-.33.53-.52.72-.33.32-.54.46-.91.65-.74.38-1.5.49-2.32.4-.67-.07-1.28.52-1.32,1.18-.04.7.5,1.25,1.18,1.32,2.22.22,4.66-.75,5.86-2.69,1.31-2.11.73-4.81-1.48-6.02-2.07-1.13-4.62-1.44-6.87-.65-1.03.36-2,.98-2.61,1.91s-.81,2.16-.62,3.28c.43,2.56,2.89,4.18,5.36,4.28.67.03,1.28-.49,1.32-1.18s-.5-1.29-1.18-1.32h0Z"/><path class="cls-1" d="m60.25,48.3c-1.49-1.32-2-3.41-1.35-5.28s2.67-3.19,4.68-3.38c1.06-.1,2.32.08,3.18.75s1.38,1.87,1.59,2.96c.41,2.18-.51,4.49-2.45,5.64-2.14,1.26-4.82.76-6.33-1.21-.41-.54-1.29-.53-1.76-.1-.53.48-.52,1.23-.1,1.76,1.98,2.58,5.56,3.4,8.52,2.18s4.84-4.31,4.71-7.47c-.07-1.73-.63-3.41-1.7-4.79s-2.72-2.05-4.42-2.21c-2.97-.27-6.22,1.2-7.71,3.84-1.6,2.83-1.2,6.76,1.29,8.97.5.45,1.22.59,1.76.1.46-.41.61-1.31.1-1.76h0Z"/><path class="cls-1" d="m9.88,58.4l3.35-4.55,1.61-2.19.8-1.09.47-.64.2-.27c.2-.25.18-.24-.06.02l-.64.13.16.03-.62-.21c1.3.75,2.28,2.13,2.79,3.52.48,1.3.68,2.98.05,4.26-.7,1.43-2.55,1.49-3.95,1.43-1.72-.06-3.34-.56-4.69-1.63-.53-.42-1.38-.18-1.73.35-.4.6-.18,1.31.35,1.73,1.97,1.56,4.59,2.18,7.07,2.03,1.34-.08,2.67-.29,3.78-1.1.95-.68,1.58-1.78,1.84-2.91.53-2.32.01-4.85-1.27-6.85-.65-1.02-1.45-1.9-2.42-2.63-.57-.43-1.27-.71-1.96-.34-.63.34-1.04,1.14-1.45,1.69l-5.77,7.83c-.96,1.3,1.13,2.68,2.08,1.38h0Z"/><path class="cls-1" d="m16.2,59.25c-3.02,6.4.54,13.64,5.67,17.72,2.87,2.29,6.28,3.85,9.69,5.15,3.84,1.46,7.77,2.74,11.77,3.72,7.92,1.94,16.03,2.4,24.06.9,7.51-1.4,14.73-4.36,21.11-8.57,6.92-4.57,12.84-10.47,17.58-17.27.92-1.32-1.16-2.7-2.08-1.38-7.95,11.41-19.53,20.26-33.06,23.86-7.27,1.93-14.81,2.29-22.23,1.05-3.82-.64-7.57-1.67-11.24-2.88-3.43-1.12-6.91-2.31-10.1-4s-6.41-4.11-8.2-7.47c-1.67-3.13-2.14-6.76-.6-10.03.69-1.45-1.69-2.24-2.37-.8h0Z"/><path class="cls-1" d="m106.37,60.66c4.98-5.81,2.9-14.66-3.1-18.83-2.97-2.06-6.73-3.1-10.33-2.74-3.94.4-6.37,3.17-8.51,6.23s-4.75,5.96-7.91,8.25-6.62,3.94-10.25,5.12c-3.99,1.29-8.2,2.07-12.39,1.98-4.57-.1-8.67-1.41-12.59-3.72-4.19-2.45-8.5-5.47-13.56-5.52-3.92-.04-7.82,1.98-9.31,5.74-.59,1.5,1.78,2.3,2.37.8,1.3-3.28,5.15-4.39,8.37-3.92,4.13.61,7.61,3.18,11.13,5.21s7.17,3.36,11.2,3.76,7.9-.02,11.72-.9c6.66-1.54,13.09-4.6,18.13-9.27,2.57-2.39,4.37-5.26,6.53-7.99,1.05-1.33,2.33-2.53,3.98-3.02s3.68-.39,5.4.02c3.61.86,6.94,3.17,8.51,6.61,1.62,3.56,1.07,7.84-1.47,10.81-1.05,1.22,1.05,2.59,2.08,1.38h0Z"/><path class="cls-1" d="m103,40.07c-.87-1.51-1.04-3.29-.44-4.93.07-.18.14-.36.22-.53.06-.11.37-.48.36-.59,0,0-.39-.03-.39,0,.02.08.68.38.76.43,1.02.59,2.05,1.19,3.07,1.78s2.05,1.19,3.07,1.78c.5.29.99.58,1.49.86.23.13.46.27.69.4.05.03.23.16.32.19l.12.08c-.02-.79-.11-1.02-.27-.71-.3.32-.5.79-.76,1.14s-.56.67-.89.96c-.71.61-1.55.87-2.47.96-1,.1-2.07.08-3.07-.03-.82-.09-1.54-.3-2.03-.96-.41-.54-1.29-.53-1.76-.1-.54.48-.51,1.22-.1,1.76,1.49,1.98,4.42,1.96,6.65,1.83,1.5-.08,2.88-.42,4.1-1.32,1-.74,1.79-1.8,2.42-2.86.4-.66.59-1.37.2-2.09-.36-.65-1.13-.98-1.75-1.34-1.32-.77-2.64-1.53-3.96-2.3s-2.64-1.53-3.96-2.3c-.64-.37-1.29-.75-2.06-.61s-1.29.71-1.66,1.32c-1.53,2.48-1.57,5.76-.11,8.29.34.58,1.06.87,1.68.55.58-.29.89-1.09.55-1.68h0Z"/><path class="cls-1" d="m32.06,62c1.61.09,1.75-2.4.14-2.5s-1.75,2.4-.14,2.5h0Z"/><path class="cls-1" d="m37.02,64.19c3.38,2.04,7.17,3.29,11.11,3.64,1.6.14,1.75-2.35.14-2.5-3.49-.31-6.87-1.42-9.87-3.23-1.38-.83-2.76,1.25-1.38,2.08h0Z"/><path class="cls-1" d="m101.51,57.66c1.61.09,1.75-2.4.14-2.5s-1.75,2.4-.14,2.5h0Z"/><path class="cls-1" d="m97.04,59.74c-.41.64-.85,1.26-1.33,1.85-.11.13-.22.26-.33.39-.05.07-.17.19-.05.06-.06.07-.13.14-.19.21-.25.28-.52.56-.78.82-.52.52-1.08,1.02-1.65,1.48-.3.24-.6.47-.9.69-.06.04-.12.09-.19.13,0,0-.27.18-.15.1s-.13.08-.15.1c-.1.06-.19.12-.29.19-.55.35-.9,1.05-.55,1.68.31.54,1.09.92,1.68.55,2.78-1.77,5.17-4.1,6.95-6.87.35-.55.23-1.38-.35-1.73s-1.36-.24-1.73.35h0Z"/><path class="cls-1" d="m80.68,27.9c.7,7.07.85,14.18.48,21.27-.08,1.61,2.41,1.75,2.5.14.38-7.32.19-14.65-.53-21.94-.16-1.6-2.6-1.06-2.45.52h0Z"/><path class="cls-1" d="m2.38,61.65c1.75.88,3.31,2.19,3.64,4.17.13.81-.05,1.64-.51,2.27-.16.22-.49.53-.72.67-.16.09-.41.21-.43.21-.11.03-.22.06-.32.08-.04,0-.4.03-.2.03-.67.02-1.28.46-1.32,1.18-.04.63.5,1.34,1.18,1.32,2.88-.09,5.02-2.64,4.86-5.48s-2.23-5.23-4.78-6.53c-.6-.3-1.33-.26-1.73.35-.34.51-.26,1.43.35,1.73h0Z"/><path class="cls-1" d="m2.56,70.63c.61,4.27.76,8.57.46,12.86-.06.79.72,1.49,1.51,1.29,3.53-.87,7.05-1.75,10.58-2.62,3.18-.79,6.48-1.44,9.4-2.99,1.42-.75.29-2.99-1.13-2.23-2.85,1.51-6.08,2.11-9.18,2.87-3.4.84-6.79,1.68-10.19,2.53l1.51,1.29c.32-4.52.14-9.05-.51-13.53-.23-1.59-2.67-1.07-2.45.52h0Z"/></svg>