<?xml version="1.0" encoding="UTF-8"?><svg id="Layer_1" xmlns="http://www.w3.org/2000/svg" width="128.34" height="108.06" viewBox="0 0 128.34 108.06"><defs><style>.cls-1{stroke-width:3px;}.cls-1,.cls-2{fill:none;stroke:#f15a29;stroke-miterlimit:10;}.cls-3{fill:#f15a29;}.cls-2{stroke-width:2px;}</style></defs><path class="cls-3" d="m31.96,80.16c-6.44-2.25-12.24-6.11-16.85-11.13-2.28-2.48-4.25-5.24-5.85-8.2-.86-1.59-1.97-3.79-.97-5.58.85-1.52,2.86-1.4,4.22-.7,1.57.81,2.71,2.29,3.85,3.6,1.3,1.49,2.66,2.92,4.07,4.3,2.82,2.75,5.85,5.32,9.1,7.55s6.66,3.85,10.43,4.8c1.93.49,3.94.9,5.94.89s3.89-.54,5.77-1.17c2.98-.99,8.05-2.74,9.92,1.01.98,1.95,1.14,4.56,1.37,6.69.26,2.41.35,4.84.3,7.27l1.25-1.25c-1.57.14-3.13.28-4.7.42-.68.06-1.24.52-1.25,1.25-.07,5.16-.14,10.33-.21,15.49l1.25-1.25c-8.41.72-16.84,1.01-25.28.86l1.25,1.25c-.59-8.15-1.18-16.3-1.77-24.45-.12-1.6-2.62-1.61-2.5,0,.59,8.15,1.18,16.3,1.77,24.45.05.68.53,1.24,1.25,1.25,8.44.15,16.87-.13,25.28-.86.68-.06,1.24-.53,1.25-1.25.07-5.16.14-10.33.21-15.49l-1.25,1.25c1.57-.14,3.13-.28,4.7-.42.68-.06,1.23-.52,1.25-1.25.09-4.45-.08-9.35-1.38-13.65-1.1-3.62-4.27-5.34-7.94-5.07-2.03.15-3.93.85-5.85,1.48-2.22.73-4.33,1.11-6.67.8-4.53-.6-8.79-2.32-12.57-4.84s-7.26-5.57-10.43-8.82c-2.56-2.63-4.98-6.7-8.76-7.64s-7.08,1.8-6.69,5.74c.2,2.03,1.21,3.87,2.21,5.61s2.04,3.25,3.22,4.77c5.23,6.76,12.36,11.88,20.42,14.7,1.52.53,2.18-1.88.66-2.41h0Z"/><path class="cls-3" d="m65.39,71.95c3.48,3.97,3.49,9.77,3.56,14.76.1,6.23-.05,12.47-.11,18.7,0,.68.58,1.24,1.25,1.25,7.4.09,14.8.18,22.2.26.49,0,1.12-.39,1.21-.92,1.3-8.51,2.03-17.1,2.15-25.71l-.92,1.21c6.48-2.19,12.48-5.61,17.67-10.07,2.62-2.26,5.01-4.78,7.12-7.52s4.27-5.88,3.08-9.35c-1.02-2.98-4.2-4.12-7.12-3.54-3.42.68-6.08,3.59-8.64,5.74-2.86,2.41-5.83,4.75-9.15,6.51s-7.08,2.75-10.89,3.12c-4.35.42-8.73.27-13.09.51-2.74.15-8.68-.07-8.83,3.88-.06,1.61,2.44,1.61,2.5,0,.04-1.01,2.73-1.08,3.41-1.16,1.8-.19,3.61-.28,5.41-.33,3.31-.1,6.63-.07,9.93-.35s6.7-.86,9.83-2.13c2.88-1.16,5.52-2.77,8.02-4.61,2.62-1.93,5.05-4.08,7.54-6.17,1.95-1.63,5.04-3.82,7.62-2.13,3.1,2.03.08,6.31-1.44,8.29-1.8,2.35-3.83,4.53-6.02,6.53-5.08,4.62-11.11,8.16-17.62,10.36-.53.18-.91.63-.92,1.21-.12,8.39-.8,16.75-2.06,25.04l1.21-.92c-7.4-.09-14.8-.18-22.2-.26l1.25,1.25c.06-6.72.25-13.44.08-20.16-.13-5.3-.62-10.91-4.27-15.07-1.06-1.21-2.82.56-1.77,1.77h0Z"/><circle class="cls-1" cx="44.1" cy="56" r="10.84"/><circle class="cls-1" cx="80.63" cy="52.81" r="10.84"/><circle class="cls-2" cx="60.47" cy="21.81" r="20.15"/><path class="cls-3" d="m43.16,14.17c.73.44.93,1.35.96,2.15.04,1.08-.17,2.16-.03,3.24.07.53.25.98.43,1.48s.04.94-.32,1.33-.86.69-1.31,1c-.52.35-1.04.69-1.56,1.04-.8.53-.05,1.83.76,1.3,1.12-.74,2.51-1.43,3.36-2.48.4-.5.67-1.1.67-1.75,0-.68-.4-1.25-.52-1.9-.24-1.25.13-2.54-.02-3.8-.15-1.16-.62-2.25-1.65-2.87-.83-.5-1.58.79-.76,1.3h0Z"/><path class="cls-3" d="m55.16,39.83c-.35-.89-.73-1.78-1.14-2.64-.21-.43-.42-.86-.65-1.28-.2-.38-.41-.68-.86-.77s-.93-.04-1.38-.05c-.5,0-.99-.02-1.49-.03-1.02-.02-2.03-.04-3.05-.06-.8-.02-.8,1.23,0,1.25,1.72.03,3.44.07,5.16.1.1,0,.21.02.31,0,.14-.02.18.04.07-.1.11.13.18.33.26.48.19.36.37.72.54,1.08.37.77.71,1.55,1.02,2.35.12.31.42.53.77.44.3-.08.56-.45.44-.77h0Z"/><path class="cls-3" d="m45.37,32.67c0-1.43.76-3.04,1.78-4.05s2.55-1.52,3.82-2.1c.6-.28.83-.16,1.42-.15.28,0,.64-.27.79-.26.24.02,1.2.92,1.43,1.06.51.31,1.06.58,1.63.75.5.16,1.04.24,1.57.24.79,0,1.59-.27,2.31.21.49.33.88.82,1.35,1.18.51.39,1.11.64,1.36,1.27.34.87.42,1.53,1.49,1.68,1.41.21,3.12-.2,4.48.25l-.52-.52c.04.17-.47.99-.56,1.21-.18.42-.3.72-.66,1.01-.56.44-1.13.73-1.53,1.35-.81,1.24-.76,2.78-.64,4.18.08.96,1.58.96,1.5,0-.08-1.01-.22-2.19.26-3.13s1.61-1.11,2.11-2.03,1.86-3.16.21-3.59c-1.07-.28-2.39-.08-3.49-.16-.54-.04-.86.05-1.11-.38-.17-.29-.17-.67-.37-.97-.45-.71-1.25-1.05-1.87-1.58s-1.11-1.11-1.87-1.39c-.94-.34-1.86,0-2.82-.11-1.28-.14-2.18-.92-3.19-1.6-.54-.36-1.04-.61-1.67-.35s.13.14-.27.1c-.44-.05-.71-.1-1.15.03-.95.29-1.9.84-2.8,1.28-.81.39-1.59.83-2.25,1.46-1.3,1.26-2.22,3.29-2.22,5.11,0,.97,1.5.97,1.5,0h0Z"/><path class="cls-3" d="m51.76,4.6c.08.62,0,1.2-.26,1.78-.31.71.57,1.61,1.18.91.54-.61,1.18-1.06,2-1.21.28-.05.56-.06.84-.04l-.2-.12c-.35.3-.77.48-1.17.68-1.17.57-2.13,1.33-2.2,2.71-.02.34.25.62.55.72,2.36.78,4.41-.51,6.37-1.69,1.18-.71,2.26-1.01,3.57-1.33,1.07-.26,1.98-.87,2.84-1.53.22-.17.49-.49.75-.58.52-.19.48.03.59.37.18.59-.15,1.7-.35,2.29-.33.96-.87,1.43-1.9,1.19-.54-.13-1.04-.29-1.6-.27-2.18.05-3.7,1.86-3.69,3.97,0,.63.83,1.01,1.28.53.19-.26.45-.44.76-.54l.53,1.01c-.14.44-1.54.04-1.84-.03-1.01-.26-2.01-.55-3.02-.83-.45-.12-.98.23-.95.72.09,1.55.17,3.11-.66,4.49-.28.46.07,1.17.65,1.13,1-.07,3.01-.62,3.65.32.47.69.52,1.35,1.28,1.85.27.18.69.12.91-.12.47-.51.94-1.02,1.41-1.53l-1.18-.15c.33.53.69,1.48,1.38,1.67.8.22,1.96-.34,2.72-.53l-.85-.34c1.54,3.07,5.78,7.9,9.46,4.7.64-.55,1.02-1.29,1.12-2.13.08-.65-.03-1.29-.05-1.94,0-.35-.25-.21,0-.11.29.12.57.38.84.56.58.38,1.21.92,1.91.52.83-.47,1.35-1.88,1.84-2.66.51-.82-.78-1.57-1.3-.76-.3.48-.61.97-.91,1.45-.11.18-.23.36-.34.54-.21.25-.13.27.23.06-.45-.43-1.5-1.16-2.11-1.33-1.43-.4-1.71,1.11-1.64,2.17s.12,2.11-.9,2.74c-.92.57-2.05.42-2.97-.05-1.78-.91-3.02-2.78-3.89-4.51-.15-.3-.54-.42-.85-.34-.46.11-1.15.44-1.62.41-.13.31-.24.25-.35-.16l-.43-.7c-.25-.39-.84-.52-1.18-.15-.47.51-.94,1.02-1.41,1.53l.91-.12c-.83-.55-.69-1.85-1.69-2.36-1.09-.56-2.84-.09-4-.01l.65,1.13c.98-1.61.97-3.42.86-5.25l-.95.72c1.79.49,6.33,2.44,7.06-.62.23-.98-.34-1.95-1.26-2.33-1.06-.44-2.15.05-2.89.83l1.28.53c0-.93.38-1.81,1.26-2.24s1.65-.08,2.55.1c1.04.2,1.94-.08,2.61-.91.98-1.21,1.95-4.71.42-5.84-.85-.63-1.86-.16-2.59.4-1.21.93-2.21,1.48-3.71,1.79-2.77.58-5.23,3.84-8.21,2.85l.55.72c.07-1.37,5.05-2.37,3.28-4.33-.55-.61-1.72-.5-2.44-.35-1.05.22-1.96.79-2.66,1.59l1.18.91c.43-.98.55-1.88.41-2.94-.13-.95-1.57-.55-1.45.4h0Z"/></svg>