<?xml version="1.0" encoding="UTF-8"?><svg id="Layer_1" xmlns="http://www.w3.org/2000/svg" width="119.73" height="133.65" viewBox="0 0 119.73 133.65"><defs><style>.cls-1{fill:#f15a29;}</style></defs><path class="cls-1" d="m72.57,9.41l10.29-.24c1.61-.04,1.61-2.54,0-2.5l-10.29.24c-1.61.04-1.61,2.54,0,2.5h0Z"/><path class="cls-1" d="m26.16,43.16c8.18-.35,16.36-.42,24.54-.2,1.61.04,1.61-2.46,0-2.5-8.18-.21-16.37-.14-24.54.2-1.6.07-1.61,2.57,0,2.5h0Z"/><path class="cls-1" d="m49.86,42.37c3.62,7.63,5.36,16.09,5.02,24.53-.17,4.19-.91,8.37-3.24,11.93-2.08,3.18-5.06,5.66-7.89,8.15-3.21,2.82-6.36,5.69-6.26,10.31.03,1.61,2.53,1.61,2.5,0-.09-4.27,3.55-6.8,6.45-9.35s5.69-5.1,7.69-8.36c2.21-3.61,3-7.84,3.23-12.01s-.08-8.51-.84-12.69c-.87-4.78-2.41-9.4-4.49-13.78-.69-1.45-2.85-.19-2.16,1.26h0Z"/><path class="cls-1" d="m24.59,42.01c-1.08,4.37-2.16,8.74-3.24,13.11-1,4.05-2.26,8.14-2.17,12.36.08,3.68,1.01,7.31,2.68,10.59s4.14,5.98,6.93,8.37c3.1,2.66,6.52,5.08,8.84,8.5.9,1.32,3.07.07,2.16-1.26-3.95-5.81-10.73-8.87-14.56-14.76-1.98-3.05-3.22-6.6-3.49-10.22-.3-4.03.77-7.84,1.72-11.72,1.18-4.77,2.36-9.54,3.53-14.31.39-1.56-2.02-2.23-2.41-.66h0Z"/><path class="cls-1" d="m29.69,86.62c5.23,2.64,11.28,2.28,16.76.67,1.54-.45.88-2.87-.66-2.41-4.81,1.41-10.22,1.91-14.84-.42-1.43-.72-2.7,1.43-1.26,2.16h0Z"/><path class="cls-1" d="m37.51,97.5c.31,7.92.48,15.85.52,23.78,0,1.61,2.51,1.61,2.5,0-.03-7.93-.21-15.86-.52-23.78-.06-1.6-2.56-1.61-2.5,0h0Z"/><path class="cls-1" d="m29.2,125.17l19.22-.41c1.61-.03,1.61-2.53,0-2.5l-19.22.41c-1.61.03-1.61,2.53,0,2.5h0Z"/><path class="cls-1" d="m22.56,66.91c2.02-2.41,4.84-3.89,7.94-4.35,1.56-.23,3.41-.32,4.87.37s2.7,1.93,4.03,2.87c4.91,3.47,12.27,5.5,16.98.5,1.1-1.17-.66-2.94-1.77-1.77-2.21,2.35-5.61,2.73-8.6,1.86-3.41-.99-5.76-3.4-8.67-5.22-2.64-1.65-6.08-1.47-9-.71s-5.6,2.37-7.55,4.68c-1.03,1.22.73,3,1.77,1.77h0Z"/><path class="cls-1" d="m40.69,64.94c3.95-2.82,9.34-3.22,13.61-.86,1.41.78,2.67-1.38,1.26-2.16-5-2.76-11.47-2.47-16.14.86-.55.39-.81,1.09-.45,1.71.32.54,1.16.84,1.71.45h0Z"/><path class="cls-1" d="m28.32,47.14c-.58,2.29-1.19,4.57-1.83,6.85-.18.63.22,1.39.87,1.54s1.35-.2,1.54-.87c.64-2.27,1.25-4.56,1.83-6.85.16-.63-.21-1.39-.87-1.54s-1.37.19-1.54.87h0Z"/><path class="cls-1" d="m25.03,71.25c.5,2.79,1.62,5.48,3.49,7.63s4.3,3.42,7.03,3.77c.67.08,1.25-.64,1.25-1.25,0-.75-.58-1.16-1.25-1.25-2.09-.26-4.02-1.56-5.37-3.16-1.52-1.8-2.33-4.11-2.74-6.4-.12-.66-.93-1.04-1.54-.87-.7.19-.99.87-.87,1.54h0Z"/><path class="cls-1" d="m71.1,8.53c.6,10.19.68,20.41.22,30.61-.09,2.07-.09,4.21-.67,6.21-.65,2.24-2.19,3.28-3.98,4.6-3.44,2.53-4.13,6.21-4.28,10.27-.06,1.61,2.44,1.61,2.5,0,.07-2.04.16-4.25,1.18-6.08s2.82-2.57,4.29-3.81c3.27-2.76,3.28-7.26,3.45-11.19.46-10.2.38-20.42-.22-30.61-.09-1.6-2.59-1.61-2.5,0h0Z"/><path class="cls-1" d="m81.85,8.41c0,8.99.02,17.98.09,26.97.02,2.23.03,4.45.06,6.68.02,1.9-.17,4.02.63,5.79.72,1.59,2.32,2.5,3.43,3.79,1.21,1.4,2.1,3.09,2.71,4.82,1.58,4.48,1.45,9.29,1.34,13.97-.04,1.61,2.46,1.61,2.5,0,.18-7.5.11-16.23-5.89-21.7-.61-.55-1.36-1.04-1.76-1.78-.46-.87-.43-1.95-.44-2.91-.03-2.31-.04-4.62-.06-6.93-.03-4.45-.06-8.91-.08-13.36-.02-5.11-.03-10.23-.02-15.34,0-1.61-2.5-1.61-2.5,0h0Z"/><path class="cls-1" d="m62.27,59.92c-.06,12.65-.13,25.3-.19,37.95l-.1,18.73-.02,4.49c0,1.24-.16,2.66.5,3.77,1.26,2.13,4.24,1.82,6.33,1.82,7.03,0,14.07-.21,21.09-.64,1.6-.1,1.61-2.6,0-2.5-5.8.35-11.6.56-17.41.62-1.39.01-2.78.02-4.17.02-.92,0-2.67.29-3.46-.36s-.38-3.04-.38-3.98l.02-4.49c.06-11.82.12-23.64.18-35.45.03-6.66.07-13.32.1-19.97,0-1.61-2.49-1.61-2.5,0h0Z"/><path class="cls-1" d="m90.31,70.38c.02,8.95.02,17.9.02,26.85,0,4.48,0,8.95-.01,13.43,0,2.16,0,4.31-.01,6.47,0,1.16,0,2.32,0,3.48,0,.5,0,.99,0,1.49,0,.09-.09,1.57-.13,1.54-1.29-.96-2.54,1.21-1.26,2.16,1.7,1.26,3.54-.36,3.82-2.09.36-2.26.08-4.78.09-7.07,0-5.14.02-10.28.02-15.42,0-10.28,0-20.56-.02-30.83,0-1.61-2.5-1.61-2.5,0h0Z"/><path class="cls-1" d="m73.15,17.05c2.81-.21,5.64-.26,8.46-.16.68.02,1.25-.59,1.25-1.25,0-.7-.57-1.23-1.25-1.25-2.82-.1-5.64-.05-8.46.16-.67.05-1.25.54-1.25,1.25,0,.64.57,1.3,1.25,1.25h0Z"/><path class="cls-1" d="m73.89,27.58l7.53-.16c.65-.01,1.28-.56,1.25-1.25s-.55-1.27-1.25-1.25l-7.53.16c-.65.01-1.28.56-1.25,1.25s.55,1.27,1.25,1.25h0Z"/><path class="cls-1" d="m75.01,40.13c1.92-.12,3.84-.2,5.76-.24.65-.01,1.28-.57,1.25-1.25s-.55-1.26-1.25-1.25c-1.92.04-3.84.11-5.76.24-.65.04-1.28.55-1.25,1.25.03.64.55,1.29,1.25,1.25h0Z"/><path class="cls-1" d="m89.71,72.86l-18.41-.27c-1.61-.02-1.61,2.48,0,2.5l18.41.27c1.61.02,1.61-2.48,0-2.5h0Z"/><path class="cls-1" d="m69.96,73.82c.08,12,.17,24,.25,35.99.01,1.61,2.51,1.61,2.5,0-.08-12-.17-24-.25-35.99-.01-1.61-2.51-1.61-2.5,0h0Z"/><path class="cls-1" d="m71.41,111.12c6.22-.12,12.43-.24,18.65-.36,1.61-.03,1.61-2.53,0-2.5-6.22.12-12.43.24-18.65.36-1.61.03-1.61,2.53,0,2.5h0Z"/><path class="cls-1" d="m79.15,55.54c1.13-.11,2.47-.31,3.52.24.97.51,1.34,1.61,1.57,2.61.3,1.35.37,2.76.44,4.13.09,1.65.08,3.3.01,4.95s2.43,1.6,2.5,0c.09-1.91.07-3.82-.06-5.73-.11-1.58-.2-3.24-.68-4.76-.44-1.4-1.27-2.72-2.61-3.42-1.46-.75-3.11-.69-4.7-.53-.67.07-1.25.53-1.25,1.25,0,.62.57,1.32,1.25,1.25h0Z"/></svg>